<svg id="Layer_1" xmlns="http://www.w3.org/2000/svg" viewBox="0 0 475 485.6"><style>.st0{opacity:.4}.st0,.st1{fill:#262e45}</style><title>logo1</title><path class="st0" d="M374.4 47.5c2 .8 18.9 8.5 14.9 3.8-4.1-5-9.1-9.2-14.7-12.4-282.3-161.7-503.5 222.5-288.1 397 8.2 6.7 13.9 11.4 15.8 11.5 2.6.2 50.6 34.6 15.4-21C-15.9 216 142.7-65.2 374.4 47.5m99.7 167.1v-.1c-2.7-30.9-11.3-61-25.4-88.7C357.4 16 6.3 129.1 126.4 412.9c3.7 8.7 8.6 13.6 11 12s13.4-2.6 12.2-11.1c-31.9-222.1 246.3-275.1 324.5-199.2M191 444.3c1.9 6.2 1.8 8.7 3.7 9.6.9.4 26.2 8 26.9 1.6 8-68.4 194.6-139.3 207.2-80.6 16.6-24.9 33.9-49.8 40.6-80.5.2-4.3 1.6-5.7 1.6-5.7-16.6-53.5-327.1-.1-280 155.6"/><path class="st1" d="M126.2 26.5c6.9-6.3 13.6-12.3 11.1-12.7-1.9-.3-8.7 2.9-18 8.2-174 99-133 406.8 93.6 462.4v.2c6.6.6 13.3 1 19.9 1 26.5 0 52.9-4.4 77.9-13.1 22-8.2 34.4-14.5 55.4-27.5 2.3-1.5 4.6-3.1 6.8-4.7C175.3 501.9-52.4 196.6 126.2 26.5m29.5 25.7c1.6-8.5 2.6-12 .5-14s-6.8 3.1-12.5 10.8C31.9 202.7 276.1 436.2 435 375.7c17.2-26.2 29.3-55.5 35.6-86.2v-.1c-87.2 67.2-342.4-90.2-314.9-237.2m292.6 73.3C428.9 183 248.5 84 221.2 29.4c-2.8-5.9-5.3-7.3-6.3-6.9-2 .6-3.4 2.8-4.7 9.2-16.8 80.8 162.7 227.1 264.7 189.5.1-2.3 0-4.6-.5-6.9-3-31-11.9-61.1-26.1-88.8"/></svg>